<svg xmlns="http://www.w3.org/2000/svg" viewBox="0 0 32 32">
  <!-- SovnGarde: shield shape with a runic S -->
  <path d="M16 2 L28 7 L28 18 C28 24 22 29 16 31 C10 29 4 24 4 18 L4 7 Z" fill="#1a1a2e"/>
  <path d="M16 4 L26 8.5 L26 18 C26 23 21 27.5 16 29.5 C11 27.5 6 23 6 18 L6 8.5 Z" fill="none" stroke="#c9a84c" stroke-width="1"/>
  <!-- S glyph -->
  <path d="M12 11 Q12 9 16 9 Q20 9 20 12 Q20 14.5 16 15.5 Q12 16.5 12 19.5 Q12 22 16 22 Q20 22 20 20" fill="none" stroke="#c9a84c" stroke-width="2" stroke-linecap="round"/>
</svg>
